<svg xmlns="http://www.w3.org/2000/svg" viewBox="0 0 496 669" width="496" height="669">
	<style>
		tspan { white-space:pre }
		.shp0 { fill: #32373c } 
	</style>
	<path id="Path 0" fill-rule="evenodd" class="shp0" d="M106.13 1.13C107.07 1.88 120.15 12.85 135.2 25.5C150.24 38.15 181.61 64.47 204.89 84C228.17 103.53 247.57 119.5 248 119.5C248.43 119.5 267.83 103.53 291.11 84C314.4 64.47 344.71 39.09 358.48 27.58C372.24 16.08 385.3 5.06 391.5 -0.45L392.5 136.18L409.5 121.95C418.85 114.12 429.65 104.93 433.5 101.52C437.35 98.11 452.99 84.9 496 49L496.07 346.5L466.94 371C450.92 384.48 436.06 396.96 430 402L430 191L392.06 222.5L391.97 434.5L326.5 488.6L326 278L310.75 290.8C302.36 297.84 286.95 310.7 276.5 319.38C266.05 328.06 255.63 337.26 249.18 344.5L243.23 339.5C239.95 336.75 225.4 324.56 210.89 312.41C196.37 300.27 181.24 287.55 170 278L169.5 488.6L104.03 434.5L103.87 222.5L85.82 207.5C75.89 199.25 67.37 192.39 66.88 192.25C66.38 192.11 66 236.89 66 402L62.09 398.75C59.94 396.96 47.51 386.5 34.46 375.5C21.42 364.5 8.33 353.59 0 347L0 49L24.75 69.71C38.36 81.1 53.94 94.26 59.36 98.96C64.78 103.66 71.08 109.06 73.36 110.97C75.64 112.87 83.24 119.29 90.25 125.22C97.26 131.15 103.22 136 103.5 136C103.78 136 104.1 105.35 104.22 67.88C104.42 3.89 104.53 -0.16 106.13 1.13ZM170 192C226.96 239.51 244.5 254.25 245.72 255.4L247.94 257.5C266.97 241.28 284.54 226.55 299.25 214.29L326 192C326.09 142.58 326.01 141.56 324.29 142.98C323.31 143.8 317.1 149 310.5 154.53C303.9 160.06 294.23 168.19 289 172.6C283.77 177 272.41 186.54 263.75 193.8L248 207C223.59 186.54 212.22 177 207 172.6C201.78 168.19 192.1 160.06 185.5 154.53C178.9 149 172.82 143.86 171.98 143.11C170.63 141.9 170.44 144.5 170.23 166.88L170 192ZM495.75 374.03C495.89 374.02 496 393.35 496 460L450.25 498.22C425.09 519.23 379.52 557.35 349 582.92C318.48 608.49 285.18 636.32 275 644.78C264.82 653.24 254.62 662.26 248.16 669.5L240.83 663.34C236.8 659.95 221.57 647.18 207 634.95C192.43 622.73 166.1 600.68 148.5 585.96C130.9 571.23 99.38 544.86 78.45 527.34C57.52 509.83 31.29 487.85 -0.06 461.5L-0.08 418.5C-0.09 377.27 -0.02 375.56 1.7 377C2.69 377.82 14.3 387.52 27.5 398.54C40.7 409.57 59.81 425.54 69.97 434.04C80.12 442.54 109.43 467.05 135.09 488.5C160.74 509.95 196.42 539.76 247 582L258.72 572.25C265.16 566.89 284.68 550.58 302.09 536C319.49 521.42 356.58 490.38 384.51 467C412.43 443.63 448.83 413.15 465.39 399.28C481.95 385.42 495.61 374.05 495.75 374.03Z" />
</svg>