<svg xmlns="http://www.w3.org/2000/svg" viewBox="0 0 680 819" width="680" height="819">
	<style>
		tspan { white-space:pre }
		.shp0 { fill: #32373c } 
		.shp1 { fill: #ffffff } 
	</style>
	<g id="Background">
		<path id="Path 0" class="shp0" d="M320 2.08C318.07 3.16 314.76 5.27 312.64 6.77C310.51 8.27 307.17 11.75 305.21 14.5C303.26 17.25 300.4 22.2 298.87 25.5C297.34 28.8 295.52 33.75 294.82 36.5C294.13 39.25 292.13 43.3 290.39 45.5C288.65 47.7 281.44 57.25 274.36 66.73C267.29 76.21 257.68 89.17 253 95.52C248.32 101.88 243.1 108.97 241.4 111.29C239.69 113.6 233.58 122.03 227.82 130L217.35 144.5C218.44 155.35 219.04 160.86 219.38 163.75C219.95 168.55 219.81 169.07 217.75 169.87C216.51 170.35 212.8 171.53 209.5 172.49C206.2 173.45 201.25 175.04 198.5 176.02C195.75 177 189.68 179.26 185 181.05C180.32 182.84 169.3 187.95 160.5 192.4C151.7 196.86 139.78 203.63 134 207.45C128.23 211.27 121.7 215.77 119.5 217.45C117.29 219.13 111.67 223.72 107 227.66C102.32 231.59 93.5 239.92 87.38 246.16C81.27 252.4 72.68 262 68.3 267.5C63.92 273 57.9 281.11 54.92 285.53C51.94 289.94 48.95 294.44 48.28 295.53C47.61 296.61 44.73 301.55 41.88 306.5C39.04 311.45 34.5 320 31.8 325.5C29.11 331 25.35 339.44 23.45 344.25C21.55 349.06 18.41 357.61 16.46 363.25C14.51 368.89 12.52 375.07 12.04 377C11.56 378.93 10.43 383.43 9.54 387C8.65 390.57 7.3 396.2 6.52 399.5C5.75 402.8 4.67 408.43 4.11 412C3.55 415.57 2.52 422.32 1.82 427C1.04 432.23 0.54 445.71 0.54 462C0.53 478.88 0.99 491.4 1.81 496.5C2.52 500.9 3.58 507.2 4.17 510.5C4.75 513.8 6.34 520.77 7.69 526C9.04 531.23 11.09 538.2 12.24 541.5C13.39 544.8 17.63 554.14 21.66 562.25C25.7 570.36 31.39 580.71 34.32 585.25C37.24 589.79 41.78 596.42 44.41 600C47.03 603.58 53.59 611.67 58.97 618C64.36 624.33 71.41 631.79 74.64 634.59C77.86 637.39 83.2 641.9 86.5 644.62C89.8 647.33 95.88 652.05 100 655.11C104.13 658.17 112.45 663.59 118.5 667.15C124.55 670.71 132.65 675.12 136.5 676.95C140.35 678.79 145.53 681.18 148 682.25C150.47 683.33 156.32 685.56 161 687.21C165.68 688.86 173.78 691.31 179 692.65C184.22 694 191.88 695.75 196 696.55C200.13 697.35 207.55 698.01 212.5 698.03C217.45 698.05 226 698.71 231.5 699.5C238.34 700.49 243.47 701.9 247.75 703.97C252.27 706.16 254.45 707.9 255.61 710.25C256.49 712.04 259.29 716.2 261.82 719.5C264.35 722.8 270.48 730.19 275.46 735.92C280.43 741.65 287.65 748.89 291.5 752.01C295.35 755.13 300.52 758.79 303 760.15C305.48 761.5 309.07 763.22 311 763.96C312.93 764.7 315.85 765.87 317.5 766.57C319.15 767.27 328.6 770.86 338.5 774.56C348.4 778.25 361.45 783.05 367.5 785.23C373.55 787.41 386.82 792.1 397 795.66C407.18 799.22 420 803.63 425.5 805.46C431 807.29 440.9 810.42 447.5 812.41C454.1 814.4 461.52 816.68 464 817.49C466.48 818.3 470.64 818.97 473.25 818.98C477.16 819 479.37 818.17 485.75 814.31C490.01 811.73 500.93 804.61 510 798.48C519.08 792.36 528.68 785.81 531.35 783.92C534.02 782.04 537.47 779.6 539.01 778.5C540.56 777.4 544.9 774.29 548.66 771.6C552.42 768.9 557.75 765.03 560.5 763C563.25 760.96 569.77 756.12 575 752.24C580.23 748.36 590.62 740.53 598.09 734.84C605.57 729.15 616.15 720.91 621.59 716.51C627.04 712.12 636 704.63 641.5 699.88C647 695.13 654.47 688.15 658.09 684.37C661.71 680.59 665.3 676.38 666.06 675C666.82 673.63 668 670.48 668.68 668C669.36 665.52 669.93 659.79 669.96 655.25C669.98 650.15 669.47 645.95 668.62 644.25C667.86 642.74 665.5 639.91 663.37 637.97C661.24 636.03 657.02 633.46 654 632.25C650.98 631.05 645.01 629.15 640.75 628.03C636.49 626.91 631.88 626 630.5 626C629.13 626 627.77 625.55 627.5 625C627.23 624.45 631.61 621.65 637.25 618.77C642.89 615.9 651.44 610.95 656.25 607.77C661.06 604.6 667.48 599.52 670.5 596.5C673.52 593.48 676.73 589.54 677.62 587.75C678.72 585.55 679.21 582.08 679.15 577C679.07 570.95 678.5 568.34 676.2 563.5C674.63 560.2 671.13 555.3 668.42 552.61C665.71 549.92 662.49 547.34 661.25 546.86C660.01 546.39 653.94 545.53 647.75 544.95C641.56 544.37 632.45 543.49 627.5 542.97C622.55 542.46 613.55 541.58 607.5 541.01C601.45 540.43 595.83 539.76 595 539.51C594.17 539.26 588.55 538.59 582.5 538.03C576.45 537.46 570.04 536.66 568.26 536.25C565.41 535.59 564.91 534.96 564.09 531C563.57 528.52 562.63 523.58 561.99 520C561.35 516.42 560.14 510.57 559.3 507C558.45 503.43 556.51 496.68 554.97 492C553.43 487.32 550.78 480.91 549.09 477.75L546 472C549.91 466.19 552.95 461.98 555.27 458.9C557.6 455.81 561.52 450.68 564 447.49C566.48 444.3 570.92 438.49 573.87 434.59L579.24 427.5C578.24 402.7 577.52 392.8 577 389.5C576.48 386.2 575.32 379 574.43 373.5C573.54 368 571.31 357.65 569.49 350.5C567.66 343.35 564.97 333.9 563.5 329.5C562.03 325.1 559.22 317.45 557.24 312.5C555.26 307.55 551.17 298.55 548.15 292.5C545.14 286.45 540.18 277.45 537.15 272.5C534.11 267.55 529.91 261.14 527.81 258.25L524 253C526.39 246.41 527.71 241.57 528.48 238C529.24 234.43 530.35 228.57 530.94 225C531.54 221.43 532.67 214 533.46 208.5C534.25 203 535.18 192.65 535.53 185.5C536.14 172.84 536.08 172.25 533.05 163C531.35 157.78 528.56 147.88 526.86 141C524.78 132.6 523.77 126.04 523.77 121C523.78 116 524.47 111.5 525.86 107.5C527.02 104.18 527.96 98.93 527.98 95.75C527.99 92.59 527.3 88.31 526.45 86.25C525.6 84.19 523.46 81.01 521.7 79.18C519.94 77.36 516.92 75.14 515 74.24C513.02 73.32 509.12 72.64 506 72.68C502.55 72.72 499.01 73.51 496.5 74.79C494.3 75.92 490.63 78.78 488.35 81.17C486.07 83.55 483.26 87.41 482.1 89.75C480.62 92.75 480 95.91 480 100.5C480 105.36 480.6 108.2 482.39 111.75C483.7 114.36 486.96 118.54 489.64 121.03C492.31 123.52 496.07 126.51 498 127.66C500.63 129.24 502.16 131.35 504.15 136.13C505.61 139.63 507.78 146.55 508.99 151.5C510.75 158.76 511.17 163.49 511.18 176C511.19 188.13 510.73 193.56 509.08 201C507.91 206.22 505.76 214.1 504.29 218.5C502.81 222.9 501.48 226.72 501.33 227C501.17 227.28 497.77 224.54 493.77 220.92C489.77 217.29 483.13 211.86 479 208.85C474.88 205.83 467.23 200.73 462 197.51C456.77 194.29 447.77 189.45 442 186.77C436.23 184.09 430.6 181.51 429.5 181.04C428.4 180.58 425.02 179.27 422 178.14C418.98 177.01 412.9 174.95 408.5 173.57C404.1 172.19 397.8 170.36 394.5 169.5C391.2 168.65 385.13 167.28 381 166.47C376.88 165.66 371.02 164.56 368 164.04C364.98 163.52 359.13 162.64 355 162.09C350.88 161.54 340.07 160.55 331 159.9C321.19 159.19 307.2 158.96 296.5 159.33C286.6 159.67 276.7 160.25 274.5 160.61C270.63 161.25 270.46 161.16 269.36 157.89C268.73 156.02 267.45 150 266.51 144.5L264.8 134.5L315.32 59.5C327.86 57.87 333.98 56.54 337 55.48C340.57 54.24 344.38 51.81 347.88 48.53C350.84 45.77 354.04 41.92 355 40C355.97 38.08 357.27 34.02 357.91 31C358.72 27.11 358.77 24.04 358.05 20.5C357.49 17.75 355.68 13.59 354.02 11.25C352.36 8.91 348.52 5.42 345.5 3.5C340.33 0.21 339.51 0 331.75 0.06C325.48 0.1 322.66 0.59 320 2.08Z" />
		<path id="Path 1" class="shp1" d="M324.5 18.87C322.3 19.9 319.26 22.04 317.75 23.62C316.24 25.21 314.38 28.3 313.63 30.5C312.87 32.7 312.53 35.37 312.88 36.44C313.22 37.51 314.85 39.2 316.5 40.19C318.26 41.25 321.46 41.99 324.25 42C328.25 42 329.6 41.46 332.75 38.61C334.81 36.75 337.11 33.49 337.86 31.36C338.62 29.21 338.95 26.06 338.61 24.25C338.27 22.45 336.99 20.36 335.75 19.57C334.51 18.78 332.38 17.88 331 17.57C329.53 17.23 326.84 17.77 324.5 18.87ZM498.1 91.5C496.39 93.42 494.73 96.01 494.4 97.25C494.08 98.49 494.49 100.85 495.31 102.5C496.14 104.15 498.32 106.34 500.16 107.37C502 108.4 504.29 108.96 505.25 108.62C506.21 108.28 507.68 106.42 508.5 104.5C509.32 102.58 510 99.65 510 98C510 96.35 509.39 93.76 508.64 92.25C507.89 90.74 506.54 89.16 505.64 88.75C504.74 88.34 503.37 88 502.6 88C501.83 88 499.8 89.58 498.1 91.5ZM249.37 125.25C246.69 129.24 244.28 132.95 244 133.5C243.72 134.05 242.19 136.75 240.58 139.5C237.92 144.06 237.72 145.03 238.35 150.5C238.72 153.8 239.41 158.97 239.87 162C240.33 165.03 241.68 173.35 242.87 180.5C244.05 187.65 245.47 196.09 246.01 199.25C246.55 202.41 247.44 207.59 247.98 210.75C248.52 213.91 249.87 222.35 250.99 229.5C252.11 236.65 253.8 246.05 254.76 250.39C256.09 256.42 256.97 258.45 258.5 259.02C259.67 259.45 261.64 259.19 263.25 258.38C264.84 257.58 266.28 255.84 266.66 254.25C267.03 252.74 266.79 247.45 266.13 242.5C265.48 237.55 264.47 230.57 263.89 227C263.31 223.43 262.25 217.57 261.52 214C260.8 210.43 259.67 204.13 259.02 200C258.36 195.88 257.45 190.47 256.99 188C256.53 185.53 255.67 180.69 255.08 177.25C254.48 173.81 253.51 168.19 252.91 164.75C252.31 161.31 251.21 155.35 250.47 151.5C249.72 147.65 248.84 142.47 248.5 140C248.06 136.69 248.48 133.91 250.08 129.5C251.28 126.2 252.59 123.05 252.98 122.5C253.37 121.95 253.93 120.71 254.22 119.75C254.51 118.79 254.63 118 254.5 118C254.36 118 252.05 121.26 249.37 125.25ZM342 190.17C346.13 192.37 349.61 194.59 349.75 195.09C349.89 195.59 350.56 196.02 351.25 196.04C351.94 196.06 354.65 197.52 357.28 199.29C359.91 201.05 362.04 202.84 362.03 203.25C362.01 203.66 362.45 204 363 204C363.55 204 365.69 205.21 367.75 206.69C369.81 208.17 371.95 209.86 372.5 210.44C373.05 211.02 375.3 212.83 377.5 214.45C379.7 216.07 388.36 223.6 396.75 231.2C405.14 238.79 411.99 245.34 411.97 245.75C411.95 246.16 414.31 248.99 417.22 252.03C420.12 255.07 423.89 259.12 425.59 261.03C427.29 262.94 430.89 267.2 433.6 270.5C436.3 273.8 440.09 278.67 442.01 281.31C443.93 283.96 446.44 287.33 447.59 288.81C448.74 290.29 451.85 295.1 454.51 299.5C457.17 303.9 461.24 311.55 463.55 316.5C465.86 321.45 468.03 326.96 468.38 328.75L469 332C500.39 331.02 509.61 330.57 509.75 330.37C509.89 330.17 507.67 324.94 504.81 318.75C501.96 312.56 499.1 306.82 498.46 306C497.82 305.18 496.21 302.25 494.9 299.5C493.58 296.75 492.23 294.27 491.9 294C491.57 293.73 489.92 291.02 488.23 288C486.55 284.98 482.21 277.55 478.59 271.5C474.97 265.45 472.01 259.94 472.01 259.25C472 258.56 471.63 257.89 471.18 257.75C470.74 257.61 466.57 251.21 461.93 243.51C457.3 235.82 451.71 227.27 449.53 224.51C447.35 221.76 444.22 218.38 442.59 217C440.96 215.63 436.67 212.57 433.06 210.21C429.45 207.86 425.6 205.66 424.5 205.33C423.4 205.01 420.7 203.94 418.5 202.96C416.3 201.98 411.57 200.28 408 199.18C404.43 198.08 398.57 196.51 395 195.69C391.43 194.87 386.02 193.72 383 193.14C379.98 192.56 374.57 191.55 371 190.9C367.43 190.25 362.93 189.6 361 189.44C359.07 189.29 354.46 188.79 350.74 188.33C347.02 187.87 343.98 187.28 343.98 187C343.99 186.72 341.85 186.42 339.24 186.33L334.5 186.15L342 190.17ZM620.86 568.99C616.81 571.18 605.85 576.86 596.5 581.6C587.15 586.34 575 592.24 569.5 594.72C564 597.19 555.79 600.97 551.25 603.11C546.71 605.25 542.77 607 542.5 607C542.23 607 538.29 608.74 533.75 610.87C529.21 613 520.33 617.01 514 619.79C507.68 622.56 498.45 626.5 493.5 628.53C488.55 630.56 482.7 633.02 480.5 634C478.3 634.99 474.7 636.55 472.5 637.47C470.3 638.39 465.8 640.06 462.5 641.17C458.31 642.59 455.29 643.01 452.5 642.57C450.3 642.21 446.7 641.51 444.5 641.01C442.3 640.51 437.8 639.44 434.5 638.64C431.2 637.83 423.32 635.82 417 634.17C410.68 632.51 401.9 630.2 397.5 629.05C393.1 627.89 387.48 626.3 385 625.52C382.52 624.75 378.02 623.44 375 622.63C371.98 621.81 361.18 618.81 351 615.96C340.82 613.1 330.7 610.19 328.5 609.47C326.3 608.76 320.9 607.21 316.5 606.04C312.1 604.86 308.27 603.71 308 603.48C307.73 603.26 306.38 602.83 305 602.54C303.63 602.24 301.15 601.55 299.5 601C296.75 600.09 296.5 599.63 296.5 595.42C296.5 591.99 296 590.48 294.5 589.4C293.16 588.44 291.35 588.18 289 588.62C287.07 588.98 283.51 590.23 281.08 591.39C278.65 592.55 275.5 594.91 274.08 596.64C272.66 598.36 270.94 601.51 270.27 603.64C269.59 605.76 269.01 609.08 268.98 611C268.95 612.96 269.76 615.6 270.83 617C271.87 618.38 275.15 620.69 278.11 622.14C281.08 623.6 289.13 626.7 296 629.04C302.88 631.38 313.9 634.81 320.5 636.67C327.1 638.53 333.85 640.32 335.5 640.64C337.15 640.95 342.55 642.3 347.5 643.62C352.45 644.94 365.95 648.09 377.5 650.61C389.05 653.14 400.75 655.81 403.5 656.54C406.25 657.27 413.23 658.76 419 659.85C424.77 660.94 432.65 662.36 436.5 663.01C440.35 663.65 445.52 664.63 448 665.18C450.48 665.73 456.77 666.32 462 666.5C470.3 666.78 472.51 666.47 479.5 664.05C483.9 662.53 488.4 660.97 489.5 660.59C490.6 660.21 501.85 655.84 514.5 650.88C527.15 645.92 539.41 640.99 541.75 639.93C544.09 638.87 546.23 638 546.5 638C546.77 638 549.92 636.65 553.5 635C557.08 633.35 560.23 632 560.5 632C560.77 632 563.81 630.7 567.25 629.11C570.69 627.52 581.6 622.62 591.5 618.22C601.4 613.82 617.83 606.04 628 600.94C638.17 595.83 649.09 590.16 652.25 588.33C656.47 585.89 658.16 584.27 658.6 582.25C658.93 580.74 658.59 578.19 657.85 576.59C657.11 574.99 655.15 572.58 653.5 571.23C651.85 569.88 648.59 567.93 646.25 566.89C643.42 565.63 639.7 565 635.11 565C628.98 565 627.42 565.44 620.86 568.99ZM560.5 644.16C558.3 644.67 555.21 645.41 553.63 645.8C552.05 646.18 550.56 646.84 550.31 647.25C550.06 647.66 549.18 648 548.36 648C547.53 648 546.33 648.45 545.68 649.01C545.03 649.57 543.19 651.03 541.6 652.26C540 653.49 538.26 655.63 537.74 657C537.21 658.38 536.15 662.09 535.39 665.25C534.63 668.41 533.54 674.71 532.98 679.25C532.42 683.79 531.53 692.45 531 698.5C530.47 704.55 529.8 711.08 529.5 713C529.03 716.03 528.19 716.92 523.23 719.62C520.08 721.33 511.42 726.24 504 730.52C496.57 734.8 488.02 739.66 485 741.32C481.98 742.98 477.81 745.39 475.75 746.67C473.69 747.95 471.77 749 471.5 749C471.23 749 468.98 750.35 466.5 752C464.02 753.65 459.64 755.64 456.75 756.43C452 757.72 450.93 757.68 445.5 756.03C442.2 755.02 433.88 751.96 427 749.23C420.13 746.5 412.25 743.25 409.5 742.02C406.75 740.78 403.15 739.18 401.5 738.47C399.85 737.75 396.48 736.38 394 735.42C391.52 734.47 389.05 733.34 388.5 732.93C387.95 732.51 385.25 731.28 382.5 730.19C379.75 729.1 373.9 726.55 369.5 724.51C365.1 722.47 359.25 719.78 356.5 718.54C353.75 717.3 349.93 715.58 348 714.72C346.07 713.86 341.01 711.55 336.75 709.58C329.39 706.18 329 705.84 329.03 702.75C329.05 700.91 328.29 698.75 327.28 697.78C325.96 696.5 323.76 696.04 318.75 696.03C315.04 696.01 309.72 696.56 306.93 697.25C303.52 698.09 300.74 699.64 298.41 702C296.06 704.37 294.75 706.79 294.35 709.5C293.78 713.33 293.96 713.67 298.63 717.59C301.31 719.84 306.88 723.71 311 726.18C315.13 728.66 324.24 733.45 331.25 736.84C338.26 740.23 344.23 743 344.5 743C344.77 743 347.81 744.29 351.25 745.86C354.69 747.43 364.25 751.45 372.5 754.78C380.75 758.11 395.6 763.82 405.5 767.45C415.4 771.09 424.4 774.48 425.5 774.98C426.6 775.49 434.02 777.91 442 780.36C449.98 782.82 459.88 785.81 464 787.02L471.5 789.21C477.7 786.14 490.52 777.87 504 768.86C517.48 759.84 536.96 746.4 547.29 738.98C557.62 731.57 567.07 724.83 568.29 724C569.51 723.17 578.83 716.3 589 708.73C599.17 701.15 608.63 694.07 610 692.99C611.38 691.92 615.2 688.89 618.51 686.27C621.81 683.65 628.34 678.32 633.01 674.44C637.68 670.55 642.53 666.05 643.78 664.44C645.27 662.51 645.84 660.81 645.41 659.5C645.06 658.4 643.81 656.48 642.64 655.23C641.46 653.99 639.38 652.48 638 651.89C636.17 651.11 634.42 651.15 631.5 652.04C629.3 652.72 625.25 654.89 622.5 656.87C619.75 658.85 617.05 660.82 616.5 661.25C615.95 661.67 614.38 662.87 613 663.9C611.63 664.93 606.79 668.3 602.25 671.39C597.71 674.48 593.77 677 593.5 677C593.23 677 590.3 678.8 587 681C583.7 683.2 580.55 685 580 685C579.45 685 579 685.34 579.01 685.75C579.01 686.16 577.55 687.31 575.76 688.3C573.97 689.29 570.92 692.13 569 694.6C567.08 697.07 564.94 699.07 564.25 699.05C563.31 699.01 563.14 696.97 563.56 690.75C563.87 686.21 564.55 679.46 565.06 675.75C565.58 672.04 566 663.15 566 656C566 648.85 565.66 643.05 565.25 643.11C564.84 643.18 562.7 643.65 560.5 644.16Z" />
	</g>
</svg>